<svg width="51" height="51" viewBox="0 0 51 51" fill="none" xmlns="http://www.w3.org/2000/svg">
<path fill-rule="evenodd" clip-rule="evenodd" d="M1 41.9231L18.5538 31.0538L20.5 32.5538L9.18462 50.1077H13.0615L23.0538 33.5538L27.7077 32.4462L20.8154 50.1077H24.6923L32.0154 32.0154L50.1077 30.7231V26.8462L33.3077 28.5692L35.8923 22.1077L50.1077 18.2308V14.7846L35.0308 18.6615L32.4462 16.0769L36.3231 1H32.4462L29 15.2154L22.5385 17.8L23.8308 1H20.3846L19.0923 19.0923L1 26.4154V29.8615L18.6615 22.9692L17.5538 28.0538L1 37.6154V41.9231ZM21.6769 29L22.1077 21.6769L30.2923 18.6615L32.4462 20.8154L29.4308 29L22.6936 29.8615L21.6769 29Z" fill="white"/>
<path d="M27.7077 32.4462L23.0538 33.5538L13.0615 50.1077H9.18462L20.5 32.5538L18.5538 31.0538L1 41.9231V37.6154L17.5538 28.0538L18.6615 22.9692M27.7077 32.4462L20.8154 50.1077H24.6923L32.0154 32.0154M27.7077 32.4462L32.0154 32.0154M32.0154 32.0154L50.1077 30.7231V26.8462L33.3077 28.5692M33.3077 28.5692L35.8923 22.1077L50.1077 18.2308V14.7846L35.0308 18.6615L32.4462 16.0769L36.3231 1H32.4462L29 15.2154L22.5385 17.8M33.3077 28.5692L29.4308 29M22.5385 17.8L23.8308 1H20.3846L19.0923 19.0923M22.5385 17.8L19.0923 19.0923M19.0923 19.0923L1 26.4154V29.8615L18.6615 22.9692M18.6615 22.9692L22.1077 21.6769M22.1077 21.6769L21.6769 29L22.6936 29.8615L29.4308 29M22.1077 21.6769L30.2923 18.6615L32.4462 20.8154L29.4308 29" stroke="#262B32"/>
</svg>
